{
    "asset" : {
        "generator" : "Khronos glTF Blender I/O v1.7.33",
        "version" : "2.0"
    },
    "scene" : 0,
    "scenes" : [
        {
            "name" : "Scene",
            "nodes" : [
                0,
                1,
                2,
                3,
                4,
                5
            ]
        }
    ],
    "nodes" : [
        {
            "mesh" : 0,
            "name" : "Suzanne",
            "translation" : [
                0,
                0.9936686754226685,
                0
            ]
        },
        {
            "mesh" : 1,
            "name" : "Suzanne.001",
            "translation" : [
                -2.7387752532958984,
                0.9936686754226685,
                0
            ]
        },
        {
            "mesh" : 2,
            "name" : "Suzanne.002",
            "translation" : [
                2.76493501663208,
                0.9936686754226685,
                0
            ]
        },
        {
            "mesh" : 3,
            "name" : "Suzanne.003",
            "translation" : [
                0,
                -1.1711562871932983,
                0
            ]
        },
        {
            "mesh" : 4,
            "name" : "Suzanne.004",
            "translation" : [
                -2.7387752532958984,
                -1.1711562871932983,
                0
            ]
        },
        {
            "mesh" : 5,
            "name" : "Suzanne.005",
            "translation" : [
                2.76493501663208,
                -1.1711562871932983,
                0
            ]
        }
    ],
    "materials" : [
        {
            "doubleSided" : true,
            "name" : "Material.002",
            "pbrMetallicRoughness" : {
                "baseColorFactor" : [
                    0.05482751503586769,
                    0.0003388859622646123,
                    0,
                    1
                ],
                "roughnessFactor" : 0
            }
        },
        {
            "doubleSided" : true,
            "name" : "Material.003",
            "pbrMetallicRoughness" : {
                "baseColorFactor" : [
                    1,
                    0.9260703921318054,
                    0.8696794509887695,
                    1
                ],
                "metallicFactor" : 0,
                "roughnessFactor" : 0.09842520952224731
            }
        },
        {
            "doubleSided" : true,
            "name" : "Material.001",
            "pbrMetallicRoughness" : {
                "baseColorFactor" : [
                    0.0019341489532962441,
                    0.8000000715255737,
                    0,
                    1
                ],
                "roughnessFactor" : 0.10000000149011612
            }
        },
        {
            "doubleSided" : true,
            "name" : "Material.004",
            "pbrMetallicRoughness" : {
                "baseColorFactor" : [
                    0.05482751503586769,
                    0.0003388859622646123,
                    0,
                    1
                ],
                "metallicFactor" : 0,
                "roughnessFactor" : 0.07086614519357681
            }
        },
        {
            "doubleSided" : true,
            "name" : "Material.006",
            "pbrMetallicRoughness" : {
                "baseColorFactor" : [
                    1,
                    0.9260703921318054,
                    0.8696794509887695,
                    1
                ],
                "metallicFactor" : 0,
                "roughnessFactor" : 0.10000000149011612
            }
        },
        {
            "doubleSided" : true,
            "name" : "Material.005",
            "pbrMetallicRoughness" : {
                "baseColorFactor" : [
                    0.0019341489532962441,
                    0.8000000715255737,
                    0,
                    1
                ],
                "metallicFactor" : 0,
                "roughnessFactor" : 0
            }
        }
    ],
    "meshes" : [
        {
            "name" : "Suzanne",
            "primitives" : [
                {
                    "attributes" : {
                        "POSITION" : 0,
                        "NORMAL" : 1,
                        "TEXCOORD_0" : 2
                    },
                    "indices" : 3,
                    "material" : 0
                }
            ]
        },
        {
            "name" : "Suzanne.001",
            "primitives" : [
                {
                    "attributes" : {
                        "POSITION" : 4,
                        "NORMAL" : 5,
                        "TEXCOORD_0" : 6
                    },
                    "indices" : 3,
                    "material" : 1
                }
            ]
        },
        {
            "name" : "Suzanne.002",
            "primitives" : [
                {
                    "attributes" : {
                        "POSITION" : 7,
                        "NORMAL" : 8,
                        "TEXCOORD_0" : 9
                    },
                    "indices" : 3,
                    "material" : 2
                }
            ]
        },
        {
            "name" : "Suzanne.003",
            "primitives" : [
                {
                    "attributes" : {
                        "POSITION" : 10,
                        "NORMAL" : 11,
                        "TEXCOORD_0" : 12
                    },
                    "indices" : 3,
                    "material" : 3
                }
            ]
        },
        {
            "name" : "Suzanne.004",
            "primitives" : [
                {
                    "attributes" : {
                        "POSITION" : 13,
                        "NORMAL" : 14,
                        "TEXCOORD_0" : 15
                    },
                    "indices" : 3,
                    "material" : 4
                }
            ]
        },
        {
            "name" : "Suzanne.005",
            "primitives" : [
                {
                    "attributes" : {
                        "POSITION" : 16,
                        "NORMAL" : 17,
                        "TEXCOORD_0" : 18
                    },
                    "indices" : 3,
                    "material" : 5
                }
            ]
        }
    ],
    "accessors" : [
        {
            "bufferView" : 0,
            "componentType" : 5126,
            "count" : 10334,
            "max" : [
                1.328185796737671,
                0.9392362236976624,
                0.8224414587020874
            ],
            "min" : [
                -1.328185796737671,
                -0.971822202205658,
                -0.7782661318778992
            ],
            "type" : "VEC3"
        },
        {
            "bufferView" : 1,
            "componentType" : 5126,
            "count" : 10334,
            "type" : "VEC3"
        },
        {
            "bufferView" : 2,
            "componentType" : 5126,
            "count" : 10334,
            "type" : "VEC2"
        },
        {
            "bufferView" : 3,
            "componentType" : 5123,
            "count" : 47232,
            "type" : "SCALAR"
        },
        {
            "bufferView" : 4,
            "componentType" : 5126,
            "count" : 10334,
            "max" : [
                1.328185796737671,
                0.9392362236976624,
                0.8224414587020874
            ],
            "min" : [
                -1.328185796737671,
                -0.971822202205658,
                -0.7782661318778992
            ],
            "type" : "VEC3"
        },
        {
            "bufferView" : 5,
            "componentType" : 5126,
            "count" : 10334,
            "type" : "VEC3"
        },
        {
            "bufferView" : 6,
            "componentType" : 5126,
            "count" : 10334,
            "type" : "VEC2"
        },
        {
            "bufferView" : 7,
            "componentType" : 5126,
            "count" : 10334,
            "max" : [
                1.328185796737671,
                0.9392362236976624,
                0.8224414587020874
            ],
            "min" : [
                -1.328185796737671,
                -0.971822202205658,
                -0.7782661318778992
            ],
            "type" : "VEC3"
        },
        {
            "bufferView" : 8,
            "componentType" : 5126,
            "count" : 10334,
            "type" : "VEC3"
        },
        {
            "bufferView" : 9,
            "componentType" : 5126,
            "count" : 10334,
            "type" : "VEC2"
        },
        {
            "bufferView" : 10,
            "componentType" : 5126,
            "count" : 10334,
            "max" : [
                1.328185796737671,
                0.9392362236976624,
                0.8224414587020874
            ],
            "min" : [
                -1.328185796737671,
                -0.971822202205658,
                -0.7782661318778992
            ],
            "type" : "VEC3"
        },
        {
            "bufferView" : 11,
            "componentType" : 5126,
            "count" : 10334,
            "type" : "VEC3"
        },
        {
            "bufferView" : 12,
            "componentType" : 5126,
            "count" : 10334,
            "type" : "VEC2"
        },
        {
            "bufferView" : 13,
            "componentType" : 5126,
            "count" : 10334,
            "max" : [
                1.328185796737671,
                0.9392362236976624,
                0.8224414587020874
            ],
            "min" : [
                -1.328185796737671,
                -0.971822202205658,
                -0.7782661318778992
            ],
            "type" : "VEC3"
        },
        {
            "bufferView" : 14,
            "componentType" : 5126,
            "count" : 10334,
            "type" : "VEC3"
        },
        {
            "bufferView" : 15,
            "componentType" : 5126,
            "count" : 10334,
            "type" : "VEC2"
        },
        {
            "bufferView" : 16,
            "componentType" : 5126,
            "count" : 10334,
            "max" : [
                1.328185796737671,
                0.9392362236976624,
                0.8224414587020874
            ],
            "min" : [
                -1.328185796737671,
                -0.971822202205658,
                -0.7782661318778992
            ],
            "type" : "VEC3"
        },
        {
            "bufferView" : 17,
            "componentType" : 5126,
            "count" : 10334,
            "type" : "VEC3"
        },
        {
            "bufferView" : 18,
            "componentType" : 5126,
            "count" : 10334,
            "type" : "VEC2"
        }
    ],
    "bufferViews" : [
        {
            "buffer" : 0,
            "byteLength" : 124008,
            "byteOffset" : 0
        },
        {
            "buffer" : 0,
            "byteLength" : 124008,
            "byteOffset" : 124008
        },
        {
            "buffer" : 0,
            "byteLength" : 82672,
            "byteOffset" : 248016
        },
        {
            "buffer" : 0,
            "byteLength" : 94464,
            "byteOffset" : 330688
        },
        {
            "buffer" : 0,
            "byteLength" : 124008,
            "byteOffset" : 425152
        },
        {
            "buffer" : 0,
            "byteLength" : 124008,
            "byteOffset" : 549160
        },
        {
            "buffer" : 0,
            "byteLength" : 82672,
            "byteOffset" : 673168
        },
        {
            "buffer" : 0,
            "byteLength" : 124008,
            "byteOffset" : 755840
        },
        {
            "buffer" : 0,
            "byteLength" : 124008,
            "byteOffset" : 879848
        },
        {
            "buffer" : 0,
            "byteLength" : 82672,
            "byteOffset" : 1003856
        },
        {
            "buffer" : 0,
            "byteLength" : 124008,
            "byteOffset" : 1086528
        },
        {
            "buffer" : 0,
            "byteLength" : 124008,
            "byteOffset" : 1210536
        },
        {
            "buffer" : 0,
            "byteLength" : 82672,
            "byteOffset" : 1334544
        },
        {
            "buffer" : 0,
            "byteLength" : 124008,
            "byteOffset" : 1417216
        },
        {
            "buffer" : 0,
            "byteLength" : 124008,
            "byteOffset" : 1541224
        },
        {
            "buffer" : 0,
            "byteLength" : 82672,
            "byteOffset" : 1665232
        },
        {
            "buffer" : 0,
            "byteLength" : 124008,
            "byteOffset" : 1747904
        },
        {
            "buffer" : 0,
            "byteLength" : 124008,
            "byteOffset" : 1871912
        },
        {
            "buffer" : 0,
            "byteLength" : 82672,
            "byteOffset" : 1995920
        }
    ],
    "buffers" : [
        {
            "byteLength" : 2078592,
            "uri" : "data:application/octet-stream;base64,"
        }
    ]
}
